{"title":"Line of Duty S03E02 x264 RB58.mp4","uid":14382176,"size":672269009,"categoryP":"video","categoryS":"tv_shows","magnet":"?xt=urn:btih:3d7f862dc2c375224d3cfb2ea477ccb4db0d27ec&amp;dn=Line+of+Duty+S03E02+x264+RB58.mp4&amp;tr=udp%3A%2F%2Ftracker.leechers-paradise.org%3A6969&amp;tr=udp%3A%2F%2Fzer0day.ch%3A1337&amp;tr=udp%3A%2F%2Fopen.demonii.com%3A1337&amp;tr=udp%3A%2F%2Ftracker.coppersurfer.tk%3A6969&amp;tr=udp%3A%2F%2Fexodus.desync.com%3A6969","seeders":1,"leechers":0,"uploader":"RedBaron58","files":1,"time":1461242196,"description":"Line of Duty S03E02 x264 mp4\r\n \nhttp://www.imdb.com/title/tt2303687/\r\n\r\nTrailer:\r\n\r\nThank you for your kind comments , your feedback is welcome.\r\n\r\n\r\nAbout the Episode:\r\nThe shooting at the drugs house intensifies the scrutiny on Danny Waldron's armed-response unit,\r\nwho once again close ranks. \r\nBut with Kate Fleming on the inside, AC-12 feed in new information that helps her expose cracks \r\nin the team's story, while Steve Arnott looks deeper into the suspect sergeant's background and \r\nmakes a shocking discovery. \r\nHowever, the anti-corruption cop's life is complicated by an investigation into his own past \r\nconduct.\r\n\r\nStarring Vicky McClure, Martin Compston, Adrian Dunbar, Arsher Ali and Will Mellor and others.\r\n\r\n\r\nI hope you enjoy.\r\n\r\n\r\nTechnical\r\n\r\nGeneral\r\nComplete name                            : G:Line of Duty S03E02 x264 RB58.mp4\r\nFormat                                   : MPEG-4\r\nFormat profile                           : Base Media\r\nCodec ID                                 : isom\r\nFile size                                : 641 MiB\r\nDuration                                 : 58mn 57s\r\nOverall bit rate                         : 1 521 Kbps\r\nWriting application                      : Lavf54.63.104\r\n\r\nVideo\r\nID                                       : 1\r\nFormat                                   : AVC\r\nFormat/Info                              : Advanced Video Codec\r\nFormat profile                           :   \r\nFormat settings, CABAC                   : Yes\r\nFormat settings, ReFrames                : 4 frames\r\nCodec ID                                 : avc1\r\nCodec ID/Info                            : Advanced Video Coding\r\nDuration                                 : 58mn 57s\r\nBit rate                                 : 1 400 Kbps\r\nWidth                                    : 832 pixels\r\nHeight                                   : 468 pixels\r\nDisplay aspect ratio                     : 16:9\r\nFrame rate mode                          : Constant\r\nFrame rate                               : 25.000 fps\r\nColor space                              : YUV\r\nChroma subsampling                       : 4:2:0\r\nBit depth                                : 8 bits\r\nScan type                                : Progressive\r\nBits/(Pixel*Frame)                       : 0.144\r\nStream size                              : 590 MiB (92%)\r\nWriting library                          : x264 core 123 r2189 35cf912\r\nEncoding settings                        : cabac=1 / ref=3 / deblock=1:0:0\r\n\r\nAudio\r\nID                                       : 2\r\nFormat                                   : AAC\r\nFormat/Info                              : Advanced Audio Codec\r\nFormat profile                           : LC\r\nCodec ID                                 : 40\r\nDuration                                 : 58mn 56s\r\nBit rate mode                            : Constant\r\nBit rate                                 : 112 Kbps\r\nChannel(s)                               : 2 channels\r\nChannel positions                        : Front: L R\r\nSampling rate                            : 48.0 KHz\r\nCompression mode                         : Lossy\r\nStream size                              : 47.2 MiB (7%)","torrent":{"xt":"urn:btih:3d7f862dc2c375224d3cfb2ea477ccb4db0d27ec","amp;dn":"Line+of+Duty+S03E02+x264+RB58.mp4","amp;tr":["udp%3A%2F%2Ftracker.leechers-paradise.org%3A6969","udp%3A%2F%2Fzer0day.ch%3A1337","udp%3A%2F%2Fopen.demonii.com%3A1337","udp%3A%2F%2Ftracker.coppersurfer.tk%3A6969","udp%3A%2F%2Fexodus.desync.com%3A6969"],"infoHash":"3d7f862dc2c375224d3cfb2ea477ccb4db0d27ec","infoHashBuffer":{"type":"Buffer","data":[61,127,134,45,194,195,117,34,77,60,251,46,164,119,204,180,219,13,39,236]},"announce":[],"urlList":[]}}